<svg xmlns="http://www.w3.org/2000/svg" xmlns:xlink="http://www.w3.org/1999/xlink" width="500" zoomAndPan="magnify" viewBox="0 0 375 374.999991" height="500" preserveAspectRatio="xMidYMid meet" version="1.2"><defs><clipPath id="3f237b3f72"><path d="M 37.5 36.683594 L 337.5 36.683594 L 337.5 338.183594 L 37.5 338.183594 Z M 37.5 36.683594 "/></clipPath></defs><g id="980773e104"><path style=" stroke:none;fill-rule:nonzero;fill:#ffffff;fill-opacity:1;" d="M 145.945312 170.191406 L 126.671875 173.257812 C 126.671875 173.4375 126.703125 173.644531 126.703125 173.824219 L 126.703125 174.0625 L 125.15625 198.101562 C 125.125 198.371094 125.09375 198.667969 125.066406 198.9375 C 132.808594 201.4375 139.394531 204.566406 144.964844 208.171875 C 142.609375 202.570312 141.390625 196.523438 141.390625 190.296875 C 141.390625 183.207031 142.96875 176.386719 145.945312 170.191406 Z M 145.945312 170.191406 "/><path style=" stroke:none;fill-rule:nonzero;fill:#ffffff;fill-opacity:1;" d="M 166.707031 231.492188 C 176.03125 248.832031 175.464844 267.03125 174.691406 274.597656 L 200.367188 274.597656 C 199.59375 267.03125 199.027344 248.800781 208.351562 231.464844 C 201.976562 234.679688 194.886719 236.410156 187.53125 236.410156 C 180.171875 236.4375 173.082031 234.742188 166.707031 231.492188 Z M 166.707031 231.492188 "/><path style=" stroke:none;fill-rule:nonzero;fill:#ffffff;fill-opacity:1;" d="M 187.53125 175.015625 C 179.101562 175.015625 172.277344 181.867188 172.277344 190.269531 C 172.277344 198.699219 179.128906 205.519531 187.53125 205.519531 C 195.960938 205.519531 202.8125 198.667969 202.8125 190.269531 C 202.78125 181.867188 195.960938 175.015625 187.53125 175.015625 Z M 187.53125 175.015625 "/><path style=" stroke:none;fill-rule:nonzero;fill:#ffffff;fill-opacity:1;" d="M 248.355469 174.0625 L 248.355469 173.824219 C 248.355469 173.644531 248.355469 173.4375 248.355469 173.257812 L 229.113281 170.191406 C 232.09375 176.386719 233.699219 183.207031 233.699219 190.269531 C 233.699219 196.523438 232.480469 202.570312 230.125 208.140625 C 235.695312 204.535156 242.28125 201.410156 250.023438 198.90625 C 249.996094 198.636719 249.964844 198.339844 249.933594 198.070312 Z M 248.355469 174.0625 "/><g clip-rule="nonzero" clip-path="url(#3f237b3f72)"><path style=" stroke:none;fill-rule:nonzero;fill:#ffffff;fill-opacity:1;" d="M 325.683594 128.757812 C 318.089844 110.792969 307.214844 94.679688 293.363281 80.828125 C 279.515625 66.976562 263.398438 56.105469 245.4375 48.507812 C 227.414062 40.882812 208.320312 36.921875 188.632812 36.683594 L 188.066406 36.683594 C 187.886719 36.683594 187.707031 36.683594 187.53125 36.683594 C 187.351562 36.683594 187.171875 36.683594 186.992188 36.683594 C 167.09375 36.863281 147.824219 40.824219 129.621094 48.539062 C 111.660156 56.132812 95.546875 67.007812 81.695312 80.859375 C 67.84375 94.710938 56.972656 110.824219 49.375 128.785156 C 41.511719 147.375 37.519531 167.121094 37.519531 187.496094 C 37.519531 207.871094 41.511719 227.589844 49.375 246.207031 C 56.972656 264.171875 67.84375 280.285156 81.695312 294.136719 C 95.546875 307.988281 111.660156 318.859375 129.621094 326.457031 C 147.761719 334.140625 167.007812 338.101562 186.816406 338.3125 C 187.054688 338.3125 187.292969 338.3125 187.5 338.3125 C 187.707031 338.3125 187.976562 338.3125 188.183594 338.3125 L 188.394531 338.3125 C 208.144531 338.101562 227.296875 334.113281 245.378906 326.484375 C 263.339844 318.890625 279.453125 308.019531 293.304688 294.167969 C 307.15625 280.316406 318.027344 264.199219 325.625 246.238281 C 333.488281 227.652344 337.480469 207.902344 337.480469 187.527344 C 337.480469 167.152344 333.546875 147.34375 325.683594 128.757812 Z M 304.625 162.265625 C 302.746094 168.015625 297.742188 169.921875 292.679688 169.921875 C 289.730469 169.921875 286.753906 169.265625 284.339844 168.375 C 281.597656 167.332031 278.679688 166.796875 275.730469 166.707031 L 259.765625 166.289062 C 259.703125 166.289062 259.617188 166.289062 259.554688 166.289062 C 255.386719 166.289062 251.988281 169.683594 251.988281 173.882812 L 253.539062 197.921875 C 253.746094 200.992188 256.070312 203.464844 259.078125 203.910156 C 273.972656 206.054688 313.769531 216.71875 281.300781 268.609375 C 267.6875 284.484375 250.144531 296.878906 230.183594 304.324219 C 229.828125 304.355469 229.441406 304.355469 229.082031 304.355469 C 213.027344 304.355469 207.695312 289.9375 206 282.550781 C 205.433594 280.046875 203.199219 278.289062 200.636719 278.289062 L 174.421875 278.289062 C 171.863281 278.289062 169.628906 280.046875 169.0625 282.550781 C 167.394531 289.9375 162.0625 304.355469 145.976562 304.355469 C 145.617188 304.355469 145.261719 304.355469 144.875 304.324219 C 124.945312 296.878906 107.402344 284.484375 93.757812 268.609375 C 61.320312 216.71875 101.085938 206.054688 115.980469 203.910156 C 119.019531 203.464844 121.339844 200.992188 121.519531 197.921875 L 123.070312 173.882812 C 123.070312 169.683594 119.671875 166.289062 115.503906 166.289062 C 115.445312 166.289062 115.355469 166.289062 115.292969 166.289062 L 99.328125 166.707031 C 96.378906 166.796875 93.460938 167.332031 90.71875 168.375 C 88.308594 169.296875 85.328125 169.921875 82.378906 169.921875 C 77.316406 169.921875 72.3125 168.015625 70.433594 162.265625 C 66.949219 151.515625 84.40625 145.078125 90.570312 122.800781 C 90.601562 122.710938 90.628906 122.621094 90.628906 122.53125 C 94.949219 107.128906 104.660156 93.785156 117.855469 84.699219 C 137.695312 71.058594 161.703125 62.984375 187.53125 62.835938 C 213.355469 62.984375 237.335938 71.058594 257.203125 84.699219 C 270.398438 93.785156 280.109375 107.128906 284.429688 122.53125 C 284.457031 122.621094 284.488281 122.710938 284.488281 122.800781 C 290.652344 145.078125 308.109375 151.515625 304.625 162.265625 Z M 304.625 162.265625 "/></g><path style=" stroke:none;fill-rule:nonzero;fill:#ffffff;fill-opacity:1;" d="M 225.152344 169.566406 C 217.855469 156.308594 203.734375 147.34375 187.53125 147.34375 C 171.324219 147.34375 157.234375 156.308594 149.9375 169.566406 C 146.542969 175.703125 144.605469 182.761719 144.605469 190.296875 C 144.605469 198.339844 146.808594 205.847656 150.652344 212.28125 C 153.808594 217.582031 158.070312 222.109375 163.105469 225.625 C 170.042969 230.421875 178.445312 233.25 187.53125 233.25 C 196.613281 233.25 205.042969 230.421875 211.984375 225.625 C 217.019531 222.140625 221.277344 217.582031 224.4375 212.3125 C 228.277344 205.875 230.484375 198.371094 230.484375 190.328125 C 230.453125 182.761719 228.515625 175.703125 225.152344 169.566406 Z M 187.53125 153.660156 C 189.824219 153.660156 191.699219 155.535156 191.699219 157.828125 C 191.699219 160.121094 189.824219 162 187.53125 162 C 185.234375 162 183.359375 160.121094 183.359375 157.828125 C 183.359375 155.535156 185.234375 153.660156 187.53125 153.660156 Z M 161.644531 164.382812 C 162.417969 163.609375 163.492188 163.160156 164.59375 163.160156 C 165.695312 163.160156 166.738281 163.609375 167.542969 164.382812 C 168.167969 165.007812 168.554688 165.78125 168.703125 166.585938 C 168.941406 167.898438 168.554688 169.265625 167.542969 170.28125 C 166.738281 171.054688 165.695312 171.5 164.59375 171.5 C 163.492188 171.5 162.449219 171.054688 161.644531 170.28125 C 160.988281 169.625 160.570312 168.789062 160.453125 167.898438 C 160.421875 167.71875 160.421875 167.539062 160.421875 167.332031 C 160.421875 166.230469 160.839844 165.1875 161.644531 164.382812 Z M 155.0625 194.4375 C 152.769531 194.4375 150.890625 192.5625 150.890625 190.269531 C 150.890625 187.972656 152.769531 186.097656 155.0625 186.097656 C 157.355469 186.097656 159.230469 187.972656 159.230469 190.269531 C 159.230469 192.5625 157.355469 194.4375 155.0625 194.4375 Z M 167.511719 216.183594 C 166.707031 216.957031 165.664062 217.402344 164.5625 217.402344 C 163.460938 217.402344 162.417969 216.957031 161.613281 216.183594 C 160.839844 215.410156 160.394531 214.335938 160.394531 213.234375 C 160.394531 212.132812 160.808594 211.089844 161.613281 210.285156 C 162.390625 209.511719 163.460938 209.0625 164.5625 209.0625 C 165.664062 209.0625 166.707031 209.511719 167.511719 210.285156 C 169.152344 211.921875 169.152344 214.574219 167.511719 216.183594 Z M 187.53125 226.90625 C 185.234375 226.90625 183.359375 225.03125 183.359375 222.734375 C 183.359375 220.441406 185.234375 218.566406 187.53125 218.566406 C 189.824219 218.566406 191.699219 220.441406 191.699219 222.734375 C 191.699219 225.03125 189.824219 226.90625 187.53125 226.90625 Z M 187.53125 211.476562 C 175.824219 211.476562 166.351562 202.003906 166.351562 190.296875 C 166.351562 178.589844 175.824219 169.117188 187.53125 169.117188 C 199.234375 169.117188 208.707031 178.589844 208.707031 190.296875 C 208.707031 201.972656 199.234375 211.476562 187.53125 211.476562 Z M 213.414062 216.183594 C 212.609375 216.957031 211.566406 217.402344 210.464844 217.402344 C 209.363281 217.402344 208.320312 216.957031 207.515625 216.183594 C 206.742188 215.410156 206.296875 214.335938 206.296875 213.234375 C 206.296875 212.132812 206.714844 211.089844 207.515625 210.285156 C 208.320312 209.511719 209.363281 209.0625 210.464844 209.0625 C 211.566406 209.0625 212.609375 209.511719 213.414062 210.285156 C 214.191406 211.058594 214.636719 212.132812 214.636719 213.234375 C 214.636719 214.335938 214.21875 215.410156 213.414062 216.183594 Z M 214.605469 167.898438 C 214.488281 168.789062 214.070312 169.625 213.414062 170.28125 C 212.609375 171.054688 211.566406 171.5 210.464844 171.5 C 209.363281 171.5 208.320312 171.054688 207.515625 170.28125 C 206.742188 169.503906 206.296875 168.433594 206.296875 167.332031 C 206.296875 167.0625 206.324219 166.824219 206.355469 166.585938 C 206.503906 165.753906 206.890625 165.007812 207.515625 164.382812 C 208.320312 163.609375 209.363281 163.160156 210.464844 163.160156 C 211.566406 163.160156 212.609375 163.609375 213.414062 164.382812 C 214.191406 165.15625 214.636719 166.230469 214.636719 167.332031 C 214.636719 167.511719 214.636719 167.71875 214.605469 167.898438 Z M 220 194.4375 C 217.703125 194.4375 215.828125 192.5625 215.828125 190.269531 C 215.828125 187.972656 217.703125 186.097656 220 186.097656 C 222.292969 186.097656 224.167969 187.972656 224.167969 190.269531 C 224.167969 192.5625 222.292969 194.4375 220 194.4375 Z M 220 194.4375 "/></g></svg>