<svg xmlns="http://www.w3.org/2000/svg" xmlns:xlink="http://www.w3.org/1999/xlink" width="500" zoomAndPan="magnify" viewBox="0 0 375 374.999991" height="500" preserveAspectRatio="xMidYMid meet" version="1.2"><defs><clipPath id="e1a8199f97"><path d="M 34.296875 166 L 71.949219 166 L 71.949219 271.761719 L 34.296875 271.761719 Z M 34.296875 166 "/></clipPath><clipPath id="f6b20df76f"><path d="M 304.011719 166 L 341.046875 166 L 341.046875 271.761719 L 304.011719 271.761719 Z M 304.011719 166 "/></clipPath></defs><g id="04edd3960c"><path style=" stroke:none;fill-rule:evenodd;fill:#5b5b5b;fill-opacity:1;" d="M 52.789062 199.667969 C 67.460938 197.136719 82.550781 191.375 104.328125 175.839844 L 104.328125 190.542969 L 52.230469 225.054688 C 52.414062 216.59375 52.601562 208.128906 52.789062 199.667969 "/><path style=" stroke:none;fill-rule:evenodd;fill:#5b5b5b;fill-opacity:1;" d="M 65.449219 138.183594 L 94.484375 128.726562 L 94.484375 152.0625 L 72.453125 161.519531 C 68.945312 163.023438 67.140625 165.007812 65.507812 168.453125 L 57.914062 184.453125 C 52.164062 181.535156 52.761719 182.292969 40.957031 178.65625 C 39.789062 178.527344 38.726562 178.324219 37.75 178.070312 L 44.609375 158.980469 C 48.472656 148.210938 54.550781 141.730469 65.449219 138.183594 "/><g clip-rule="nonzero" clip-path="url(#e1a8199f97)"><path style=" stroke:none;fill-rule:evenodd;fill:#393b3d;fill-opacity:1;" d="M 64.410156 174.882812 C 56.9375 202.203125 60.941406 230.445312 70.671875 257.296875 C 72.949219 263.207031 69.21875 269.460938 62.339844 271.269531 C 55.460938 273.070312 48.042969 269.746094 45.765625 263.835938 C 34.371094 232.394531 30.265625 200.738281 39.007812 168.796875 C 39.308594 167.792969 40.40625 166.359375 42.058594 166.082031 C 46.179688 168.910156 51.804688 170.96875 56.417969 171.355469 C 61.03125 171.746094 61.640625 171.394531 64.285156 171.03125 C 65.136719 172.207031 64.792969 173.636719 64.410156 174.882812 "/></g><path style=" stroke:none;fill-rule:evenodd;fill:#5b5b5b;fill-opacity:1;" d="M 322.570312 199.667969 C 307.898438 197.136719 292.808594 191.375 271.035156 175.839844 L 271.035156 190.542969 L 323.128906 225.054688 C 322.945312 216.59375 322.757812 208.128906 322.570312 199.667969 "/><path style=" stroke:none;fill-rule:evenodd;fill:#5b5b5b;fill-opacity:1;" d="M 309.910156 138.183594 L 280.875 128.726562 L 280.875 152.0625 L 302.90625 161.519531 C 306.414062 163.023438 308.21875 165.007812 309.851562 168.453125 L 317.445312 184.453125 C 323.195312 181.535156 322.597656 182.292969 334.40625 178.65625 C 335.570312 178.527344 336.632812 178.324219 337.609375 178.070312 L 330.753906 158.980469 C 326.886719 148.210938 320.808594 141.730469 309.910156 138.183594 "/><g clip-rule="nonzero" clip-path="url(#f6b20df76f)"><path style=" stroke:none;fill-rule:evenodd;fill:#393b3d;fill-opacity:1;" d="M 310.949219 174.882812 C 318.421875 202.203125 314.417969 230.445312 304.6875 257.296875 C 302.410156 263.207031 306.140625 269.460938 313.019531 271.269531 C 319.898438 273.070312 327.320312 269.746094 329.597656 263.835938 C 340.988281 232.394531 345.09375 200.738281 336.351562 168.796875 C 336.050781 167.792969 334.953125 166.359375 333.304688 166.082031 C 329.179688 168.910156 323.558594 170.96875 318.941406 171.355469 C 314.328125 171.746094 313.71875 171.394531 311.074219 171.03125 C 310.222656 172.207031 310.570312 173.636719 310.949219 174.882812 "/></g><path style=" stroke:none;fill-rule:evenodd;fill:#333333;fill-opacity:1;" d="M 187.679688 218.367188 C 224.613281 218.367188 256.605469 223.402344 272.191406 230.738281 L 276.746094 230.738281 C 284.464844 230.738281 281.964844 241.738281 281.964844 246.296875 C 281.964844 248.953125 279.535156 250.503906 276.746094 251.121094 L 265.886719 253.535156 C 248.851562 259.46875 220.179688 263.363281 187.679688 263.363281 C 155.179688 263.363281 126.511719 259.46875 109.476562 253.535156 L 98.613281 251.121094 C 95.824219 250.503906 93.398438 248.953125 93.398438 246.296875 C 93.398438 241.738281 90.894531 230.738281 98.613281 230.738281 L 103.167969 230.738281 C 118.753906 223.402344 150.742188 218.367188 187.679688 218.367188 "/><path style=" stroke:none;fill-rule:evenodd;fill:#000000;fill-opacity:1;" d="M 88.972656 128.273438 C 134.3125 103.054688 241.046875 103.054688 286.386719 128.273438 L 286.386719 244.121094 C 258.089844 246.378906 224.164062 247.699219 187.679688 247.699219 C 151.195312 247.699219 117.265625 246.378906 88.972656 244.121094 L 88.972656 128.273438 "/><path style=" stroke:none;fill-rule:evenodd;fill:#00ff00;fill-opacity:1;" d="M 150.96875 121.039062 C 153.222656 121.339844 154.804688 123.410156 154.507812 125.660156 C 154.207031 127.910156 152.132812 129.492188 149.878906 129.191406 C 147.621094 128.890625 146.039062 126.820312 146.339844 124.570312 C 146.640625 122.320312 148.714844 120.738281 150.96875 121.039062 "/><path style=" stroke:none;fill-rule:evenodd;fill:#ff0000;fill-opacity:1;" d="M 171.832031 118.636719 C 174.085938 118.9375 175.671875 121.003906 175.367188 123.257812 C 175.066406 125.507812 172.992188 127.089844 170.738281 126.785156 C 168.484375 126.484375 166.898438 124.417969 167.199219 122.167969 C 167.503906 119.917969 169.574219 118.335938 171.832031 118.636719 "/><path style=" stroke:none;fill-rule:evenodd;fill:#00ff00;fill-opacity:1;" d="M 161.367188 119.535156 C 163.621094 119.839844 165.207031 121.910156 164.90625 124.160156 C 164.605469 126.410156 162.53125 127.988281 160.273438 127.6875 C 158.019531 127.386719 156.4375 125.316406 156.738281 123.066406 C 157.039062 120.820312 159.113281 119.238281 161.367188 119.535156 "/><path style=" stroke:none;fill-rule:evenodd;fill:#ff0000;fill-opacity:1;" d="M 182.734375 118.1875 C 184.992188 118.488281 186.574219 120.558594 186.273438 122.808594 C 185.972656 125.058594 183.898438 126.640625 181.644531 126.339844 C 179.386719 126.035156 177.804688 123.96875 178.105469 121.71875 C 178.40625 119.46875 180.480469 117.886719 182.734375 118.1875 "/><path style=" stroke:none;fill-rule:evenodd;fill:#00ff00;fill-opacity:1;" d="M 140.742188 122.597656 C 143 122.898438 144.582031 124.96875 144.28125 127.21875 C 143.980469 129.46875 141.910156 131.046875 139.652344 130.75 C 137.398438 130.449219 135.8125 128.378906 136.117188 126.128906 C 136.414062 123.878906 138.488281 122.296875 140.742188 122.597656 "/><path style=" stroke:none;fill-rule:evenodd;fill:#00ff00;fill-opacity:1;" d="M 130.199219 125.46875 C 132.453125 125.769531 134.039062 127.839844 133.734375 130.089844 C 133.433594 132.34375 131.359375 133.921875 129.105469 133.621094 C 126.851562 133.320312 125.265625 131.25 125.566406 129.003906 C 125.871094 126.75 127.941406 125.167969 130.199219 125.46875 "/><path style=" stroke:none;fill-rule:evenodd;fill:#00ffff;fill-opacity:1;" d="M 224.390625 121.039062 C 222.136719 121.339844 220.550781 123.410156 220.855469 125.660156 C 221.152344 127.910156 223.226562 129.492188 225.480469 129.191406 C 227.738281 128.890625 229.324219 126.820312 229.019531 124.570312 C 228.71875 122.320312 226.648438 120.738281 224.390625 121.039062 "/><path style=" stroke:none;fill-rule:evenodd;fill:#ff0000;fill-opacity:1;" d="M 203.527344 118.636719 C 201.273438 118.9375 199.6875 121.003906 199.992188 123.257812 C 200.292969 125.507812 202.367188 127.089844 204.621094 126.785156 C 206.875 126.484375 208.460938 124.417969 208.160156 122.167969 C 207.859375 119.917969 205.785156 118.335938 203.527344 118.636719 "/><path style=" stroke:none;fill-rule:evenodd;fill:#00ffff;fill-opacity:1;" d="M 213.992188 119.535156 C 211.738281 119.839844 210.152344 121.910156 210.453125 124.160156 C 210.757812 126.410156 212.832031 127.988281 215.085938 127.6875 C 217.339844 127.386719 218.921875 125.316406 218.625 123.066406 C 218.320312 120.820312 216.25 119.238281 213.992188 119.535156 "/><path style=" stroke:none;fill-rule:evenodd;fill:#ff0000;fill-opacity:1;" d="M 192.625 118.1875 C 190.371094 118.488281 188.789062 120.558594 189.085938 122.808594 C 189.390625 125.058594 191.460938 126.640625 193.714844 126.339844 C 195.972656 126.035156 197.558594 123.96875 197.253906 121.71875 C 196.953125 119.46875 194.878906 117.886719 192.625 118.1875 "/><path style=" stroke:none;fill-rule:evenodd;fill:#00ffff;fill-opacity:1;" d="M 234.617188 122.597656 C 232.363281 122.898438 230.777344 124.96875 231.078125 127.21875 C 231.378906 129.46875 233.453125 131.046875 235.707031 130.75 C 237.960938 130.445312 239.546875 128.378906 239.246094 126.128906 C 238.945312 123.878906 236.871094 122.296875 234.617188 122.597656 "/><path style=" stroke:none;fill-rule:evenodd;fill:#00ffff;fill-opacity:1;" d="M 245.160156 125.46875 C 242.90625 125.769531 241.320312 127.839844 241.621094 130.089844 C 241.925781 132.34375 244 133.921875 246.253906 133.621094 C 248.507812 133.320312 250.09375 131.25 249.789062 129.003906 C 249.488281 126.75 247.414062 125.167969 245.160156 125.46875 "/><path style=" stroke:none;fill-rule:evenodd;fill:#f4c42c;fill-opacity:1;" d="M 117.875 166.484375 C 122.617188 166.484375 126.484375 162.625 126.484375 157.890625 C 126.484375 153.15625 122.617188 149.296875 117.875 149.296875 C 113.132812 149.296875 109.261719 153.15625 109.261719 157.890625 C 109.261719 162.625 113.132812 166.484375 117.875 166.484375 "/><path style=" stroke:none;fill-rule:evenodd;fill:#ff3131;fill-opacity:1;" d="M 110.699219 201.28125 C 113.785156 201.28125 116.300781 198.769531 116.300781 195.6875 C 116.300781 192.609375 113.785156 190.09375 110.699219 190.09375 C 107.613281 190.09375 105.097656 192.609375 105.097656 195.6875 C 105.097656 198.769531 107.613281 201.28125 110.699219 201.28125 "/><path style=" stroke:none;fill-rule:evenodd;fill:#83d37a;fill-opacity:1;" d="M 110.699219 219.941406 C 113.785156 219.941406 116.300781 217.429688 116.300781 214.347656 C 116.300781 211.269531 113.785156 208.757812 110.699219 208.757812 C 107.613281 208.757812 105.097656 211.269531 105.097656 214.347656 C 105.097656 217.429688 107.613281 219.941406 110.699219 219.941406 "/><path style=" stroke:none;fill-rule:evenodd;fill:#f4c42c;fill-opacity:1;" d="M 257.484375 166.484375 C 262.230469 166.484375 266.097656 162.625 266.097656 157.890625 C 266.097656 153.15625 262.230469 149.296875 257.484375 149.296875 C 252.742188 149.296875 248.875 153.15625 248.875 157.890625 C 248.875 162.625 252.742188 166.484375 257.484375 166.484375 "/><path style=" stroke:none;fill-rule:evenodd;fill:#ff3131;fill-opacity:1;" d="M 264.664062 201.28125 C 267.746094 201.28125 270.265625 198.769531 270.265625 195.6875 C 270.265625 192.609375 267.746094 190.09375 264.664062 190.09375 C 261.578125 190.09375 259.058594 192.609375 259.058594 195.6875 C 259.058594 198.769531 261.578125 201.28125 264.664062 201.28125 "/><path style=" stroke:none;fill-rule:evenodd;fill:#83d37a;fill-opacity:1;" d="M 264.664062 219.941406 C 267.746094 219.941406 270.265625 217.429688 270.265625 214.347656 C 270.265625 211.269531 267.746094 208.757812 264.664062 208.757812 C 261.578125 208.757812 259.058594 211.269531 259.058594 214.347656 C 259.058594 217.429688 261.578125 219.941406 264.664062 219.941406 "/><path style=" stroke:none;fill-rule:evenodd;fill:#333333;fill-opacity:1;" d="M 250.359375 231.113281 C 230.855469 231.988281 209.734375 232.472656 187.679688 232.472656 C 165.628906 232.472656 144.507812 231.988281 125 231.113281 L 125 223.664062 C 144.507812 224.546875 165.628906 225.027344 187.679688 225.027344 C 209.734375 225.027344 230.855469 224.546875 250.359375 223.664062 L 250.359375 231.113281 "/><path style=" stroke:none;fill-rule:evenodd;fill:#333333;fill-opacity:1;" d="M 250.359375 241.113281 C 230.855469 241.996094 209.734375 242.472656 187.679688 242.472656 C 165.628906 242.472656 144.507812 241.996094 125 241.113281 L 125 233.667969 C 144.507812 234.546875 165.628906 235.027344 187.679688 235.027344 C 209.734375 235.027344 230.855469 234.546875 250.359375 233.667969 L 250.359375 241.113281 "/><path style=" stroke:none;fill-rule:evenodd;fill:#edfbfa;fill-opacity:1;" d="M 143.03125 141.363281 L 231.835938 141.363281 L 231.835938 182.402344 L 143.03125 182.402344 L 143.03125 141.363281 "/></g></svg>